<?xml version="1.0" standalone="no"?>
<!DOCTYPE svg PUBLIC "-//W3C//DTD SVG 20010904//EN"
 "http://www.w3.org/TR/2001/REC-SVG-20010904/DTD/svg10.dtd">
<svg version="1.0" xmlns="http://www.w3.org/2000/svg"
 width="480.000000pt" height="480.000000pt" viewBox="0 0 480.000000 480.000000"
 preserveAspectRatio="xMidYMid meet">
<metadata>
Created by potrace 1.11, written by Peter Selinger 2001-2013
</metadata>
<g transform="translate(0.000000,480.000000) scale(0.100000,-0.100000)"
fill="#000000" stroke="none">
<path d="M2695 4210 l-45 -90 42 -26 c233 -143 351 -262 513 -518 9 -13 21 -8
93 35 l83 51 -27 46 c-62 108 -135 202 -229 297 -124 126 -211 195 -337 268
l-48 28 -45 -91z"/>
<path d="M2143 4167 c-5 -6 -22 -34 -38 -62 -16 -27 -35 -60 -42 -72 -13 -20
-12 -23 34 -49 105 -62 309 -219 448 -344 109 -99 281 -284 368 -395 41 -53
98 -135 143 -207 l55 -87 47 22 c26 12 66 33 89 46 l41 24 -20 35 c-32 58
-186 282 -208 302 -3 3 -25 30 -50 60 -84 104 -242 266 -361 369 -106 93 -124
107 -203 168 -39 29 -76 57 -81 61 -11 9 -183 125 -201 135 -7 4 -16 1 -21 -6z"/>
<path d="M1419 4099 c-62 -9 -97 -29 -147 -82 -71 -78 -90 -194 -50 -302 10
-27 18 -51 18 -53 0 -1 -15 13 -32 31 -108 109 -224 138 -341 84 -107 -49
-171 -146 -171 -262 0 -82 22 -133 84 -195 22 -22 40 -42 40 -44 0 -3 -16 2
-37 10 -20 9 -63 15 -95 15 -192 -1 -333 -200 -267 -377 16 -41 43 -76 137
-169 98 -97 112 -115 87 -109 -126 32 -266 -39 -327 -166 -29 -61 -30 -158 -2
-220 16 -34 132 -156 475 -497 734 -731 1072 -1058 1144 -1109 70 -50 177
-100 265 -125 148 -41 364 -33 509 21 53 20 187 88 213 109 83 64 592 569 668
661 96 117 150 220 230 435 131 355 112 320 341 626 229 307 247 340 235 444
-25 233 -276 349 -470 217 -24 -16 -110 -122 -228 -279 -164 -217 -196 -254
-234 -272 -82 -39 -187 -24 -280 40 -25 17 -213 197 -417 399 -205 202 -543
537 -752 743 -235 234 -394 383 -420 396 -55 27 -121 38 -176 30z"/>
<path d="M645 1432 c-16 -15 -51 -44 -78 -64 l-48 -36 38 -44 c130 -150 390
-406 499 -492 33 -26 155 -123 170 -135 6 -5 58 -41 115 -80 l104 -71 17 23
c9 12 33 50 52 85 l35 62 -77 52 c-215 143 -495 394 -727 651 l-70 78 -30 -29z"/>
</g>
</svg>
